#!OML:ASF E:\Mandelcareful walks\Project 1\Capture day 1\Session 1\Subject1.ASF
:FULLY-SPECIFIED
:DEGREES
570
root -6.52236 15.0556 0.0810746 -324.39 63.7547 21.688
lowerback 21.9661 -0.475432 4.52736
upperback 5.37213 0.566394 -0.909299
thorax -6.33062 0.328462 -3.73906
lowerneck -31.6859 8.64396 4.59718
upperneck 22.9399 16.134 -17.4074
head 15.4642 4.97029 -4.24367
rclavicle -5.725e-014 4.77083e-015
rhumerus -33.7215 15.93 -78.6273
rradius 83.9416
rwrist -13.6986
rhand -18.538 -11.5229
rfingers 7.12502
rthumb 7.75106 -41.3608
lclavicle -5.725e-014 4.77083e-015
lhumerus -42.3865 -16.5598 91.4243
lradius 88.8102
lwrist 13.2979
lhand -31.077 -20.0682
lfingers 7.12502
lthumb -4.35753 9.86701
rfemur -47.3698 -9.9267 3.13257
rtibia 63.085
rfoot -26.8645 -13.2615
rtoes -13.9114
lfemur -48.2186 21.6022 -17.7779
ltibia 47.1293
lfoot -13.2406 12.8992
ltoes -12.9815
571
root -6.48446 15.042 0.0732319 -325.588 64.0753 20.6963
lowerback 22.5948 -0.0294339 4.2375
upperback 5.51033 1.10198 -1.10428
thorax -6.45508 0.594055 -3.9421
lowerneck -31.6848 8.48455 4.58136
upperneck 23.0326 15.8391 -17.1716
head 15.4249 4.87035 -4.22044
rclavicle 5.64548e-014 -3.18055e-015
rhumerus -33.1531 15.5093 -79.4081
rradius 84.0132
rwrist -13.9809
rhand -19.2549 -11.6412
rfingers 7.12502
rthumb 7.05908 -41.5034
lclavicle 5.64548e-014 -3.18055e-015
lhumerus -41.8235 -15.0551 91.6622
lradius 89.1108
lwrist 12.8261
lhand -32.1181 -20.8295
lfingers 7.12502
lthumb -5.36276 9.08268
rfemur -46.9299 -9.87932 3.57909
rtibia 63.2645
rfoot -26.9771 -13.3456
rtoes -14.5178
lfemur -47.8147 21.5754 -17.0869
ltibia 47.5726
lfoot -13.0042 11.9446
ltoes -12.6338
572
root -6.47311 15.0089 0.0533245 -324.221 65.4566 21.4852
lowerback 22.2983 -0.0276468 4.18538
upperback 5.38039 1.06353 -1.29496
thorax -6.44455 0.572024 -4.10458
lowerneck -31.5486 8.37935 4.78155
upperneck 23.0248 15.5821 -17.1581
head 15.3707 4.7913 -4.3146
rclavicle -2.14687e-014 -1.43125e-014
rhumerus -32.6377 14.7667 -80.2984
rradius 84.0105
rwrist -14.0365
rhand -19.449 -11.78
rfingers 7.12502
rthumb 6.87174 -41.6485
lclavicle -2.14687e-014 -1.43125e-014
lhumerus -41.1786 -13.5847 91.7391
lradius 89.2486
lwrist 12.8503
lhand -32.4442 -22.8604
lfingers 7.12502
lthumb -5.67764 7.04358
rfemur -47.3191 -11.1532 3.93665
rtibia 63.7384
rfoot -27.1463 -13.4285
rtoes -14.5993
lfemur -49.0824 20.3825 -16.9811
ltibia 48.0337
lfoot -12.0812 11.3485
ltoes -12.547
573
root -6.43066 14.9877 0.0341248 -324.445 66.1164 21.1886
lowerback 22.5891 0.225788 3.87794
upperback 5.42731 1.32923 -1.43882
thorax -6.52135 0.705391 -4.16489
lowerneck -31.6408 8.32787 4.81303
upperneck 23.1234 15.4916 -17.0932
head 15.4138 4.75428 -4.31916
rclavicle -3.4191e-014 6.67916e-014
rhumerus -32.1033 14.1787 -81.0556
rradius 84.127
rwrist -14.2435
rhand -19.6359 -11.9901
rfingers 7.12502
rthumb 6.69135 -41.8644
lclavicle -3.4191e-014 6.67916e-014
lhumerus -40.5516 -12.14 91.9281
lradius 89.5012
lwrist 13.0467
lhand -33.0469 -24.2551
lfingers 7.12502
lthumb -6.25947 5.63243
rfemur -47.1085 -11.4687 4.19628
rtibia 63.9869
rfoot -27.2716 -13.5506
rtoes -14.9054
lfemur -49.4462 20.037 -16.5823
ltibia 48.3878
lfoot -11.0357 11.0485
ltoes -12.5237
574
root -6.44541 14.9455 0.0159037 -322.272 67.6489 22.5413
lowerback 22.4802 0.172099 3.2825
upperback 5.20296 1.12373 -1.36466
thorax -6.74602 0.602161 -3.68713
lowerneck -32.0511 8.22844 4.42844
upperneck 23.2625 15.4229 -16.7236
head 15.4631 4.70663 -4.11741
rclavicle 1.43125e-014 -9.54166e-015
rhumerus -31.5415 13.8941 -81.6348
rradius 84.3387
rwrist -14.7112
rhand -19.839 -11.7768
rfingers 7.12502
rthumb 6.4952 -41.6572
lclavicle 1.43125e-014 -9.54166e-015
lhumerus -39.8191 -10.8223 92.1862
lradius 89.7421
lwrist 12.946
lhand -34.2279 -24.3954
lfingers 7.12502
lthumb -7.39957 5.45518
rfemur -47.8765 -12.6822 4.56607
rtibia 64.4969
rfoot -27.3491 -14.0905
rtoes -15.5138
lfemur -51.4374 19.0659 -16.8248
ltibia 48.7527
lfoot -9.3762 10.8564
ltoes -13.1483
575
root -6.35576 14.9444 -0.0127536 -323.58 67.8946 21.2681
lowerback 22.6795 0.70409 3.11707
upperback 5.37784 1.77159 -1.58912
thorax -6.5989 0.92665 -4.01678
lowerneck -32.2932 7.96709 4.38623
upperneck 23.3257 14.9504 -16.4122
head 15.4248 4.52787 -4.09877
rclavicle -5.1684e-014 1.74931e-014
rhumerus -31.3106 12.859 -82.3717
rradius 84.5525
rwrist -15.0745
rhand -19.7952 -11.2555
rfingers 7.12502
rthumb 6.53756 -41.1346
lclavicle -5.1684e-014 1.74931e-014
lhumerus -39.1041 -10.6093 92.256
lradius 89.8986
lwrist 13.0582
lhand -35.0081 -23.8631
lfingers 7.12502
lthumb -8.15263 5.95967
rfemur -47.3417 -12.3763 4.7584
rtibia 64.5536
rfoot -27.7621 -14.1372
rtoes -15.3732
lfemur -51.3677 19.1886 -16.4498
ltibia 49.1683
lfoot -9.02286 11.0164
ltoes -13.6462
